<?xml version="1.0" standalone="no"?>
<!DOCTYPE svg PUBLIC "-//W3C//DTD SVG 20010904//EN"
 "http://www.w3.org/TR/2001/REC-SVG-20010904/DTD/svg10.dtd">
<svg version="1.0" xmlns="http://www.w3.org/2000/svg"
 width="200.000000pt" height="200.000000pt" viewBox="0 0 200.000000 200.000000"
 preserveAspectRatio="xMidYMid meet">

<g transform="translate(0.000000,200.000000) scale(0.100000,-0.100000)"
fill="#000000" stroke="none">
<path d="M1065 1774 c-99 -16 -300 -92 -318 -120 -3 -5 20 -11 51 -12 192 -10
441 -110 601 -239 117 -95 310 -274 316 -293 8 -24 -40 -176 -63 -202 -24 -28
-42 -22 -125 38 -43 31 -80 55 -81 53 -2 -2 -19 -41 -38 -86 l-35 -82 31 -56
c45 -80 113 -155 160 -175 52 -23 240 -46 273 -33 20 8 16 50 -6 56 -21 5 -27
31 -37 164 l-7 93 49 -15 c26 -8 50 -12 52 -10 3 2 5 82 5 177 -1 127 -5 190
-17 237 -55 216 -272 414 -531 483 -70 19 -223 31 -280 22z"/>
<path d="M657 1586 c-17 -13 -13 -15 38 -26 80 -17 227 -66 310 -105 53 -24
100 -60 193 -145 67 -61 122 -113 122 -114 0 -2 -24 -63 -53 -137 -30 -74 -61
-155 -71 -181 -22 -61 -58 -98 -93 -98 -15 0 -95 34 -178 75 -259 129 -530
203 -651 177 -62 -13 -117 -48 -138 -90 -14 -30 -49 -162 -43 -168 2 -2 17 0
33 5 51 15 235 13 318 -3 140 -27 325 -96 682 -252 7 -3 28 9 49 27 42 37 102
153 190 367 32 78 63 142 68 142 5 0 46 -27 91 -60 46 -33 87 -60 93 -60 6 0
23 35 38 77 l27 78 -63 59 c-265 245 -395 335 -574 394 -146 49 -347 68 -388
38z"/>
<path d="M445 1514 c-27 -9 -56 -21 -63 -29 -12 -10 -4 -11 40 -3 70 13 210 3
310 -23 92 -23 228 -77 228 -91 0 -7 -116 -258 -123 -265 -2 -1 -36 11 -76 28
-138 58 -252 82 -391 82 -132 1 -204 -13 -214 -39 -5 -14 0 -15 41 -8 89 16
291 9 375 -14 164 -44 295 -121 430 -250 53 -51 93 -82 103 -80 23 4 45 48
111 218 l55 145 -103 97 c-57 53 -123 108 -148 121 -25 14 -108 47 -185 73
-123 42 -152 48 -240 51 -71 2 -115 -2 -150 -13z"/>
<path d="M400 1438 c-30 -5 -77 -19 -106 -32 -47 -22 -53 -28 -78 -91 -15 -37
-25 -69 -23 -71 2 -2 30 1 63 7 118 22 359 -12 502 -72 31 -13 56 -18 61 -13
5 5 27 48 49 97 l41 87 -27 14 c-51 26 -197 65 -284 76 -91 11 -109 11 -198
-2z"/>
<path d="M245 1133 c-96 -12 -145 -54 -145 -124 l0 -33 33 32 c72 70 199 89
353 52 137 -32 233 -65 419 -145 l40 -17 -20 22 c-58 64 -236 158 -364 191
-72 19 -245 31 -316 22z"/>
<path d="M1836 773 c13 -122 11 -119 87 -137 l27 -6 0 79 0 80 -52 16 c-28 8
-55 15 -60 15 -4 0 -5 -21 -2 -47z"/>
<path d="M1341 751 c-12 -21 15 -61 116 -178 67 -77 89 -91 160 -104 72 -13
208 5 218 29 3 8 4 16 3 17 -2 1 -56 7 -122 14 -75 7 -136 19 -168 33 -52 22
-122 92 -165 165 -13 24 -27 43 -29 43 -2 0 -8 -8 -13 -19z"/>
<path d="M125 733 c-66 -24 -74 -48 -44 -128 29 -78 85 -135 163 -164 33 -12
71 -21 85 -19 27 3 51 38 144 210 l47 86 -52 12 c-29 7 -107 14 -173 16 -97 4
-129 1 -170 -13z"/>
</g>
</svg>
